<svg width="139" height="139" viewBox="0 0 139 139" fill="none" xmlns="http://www.w3.org/2000/svg">
<circle cx="69.5" cy="69.5" r="69.5" fill="#F8F3FF"/>
<path opacity="0.4" d="M102.333 83.1341C102.333 92.4341 94.8663 99.9675 85.5663 100.001H85.5329H52.4996C43.2329 100.001 35.6663 92.5008 35.6663 83.2008V83.1675C35.6663 83.1675 35.6863 68.4141 35.7129 60.9941C35.7163 59.6008 37.3163 58.8208 38.4063 59.6875C46.3263 65.9708 60.4896 77.4275 60.6663 77.5775C63.0329 79.4741 66.0329 80.5441 69.0996 80.5441C72.1663 80.5441 75.1663 79.4741 77.5329 77.5408C77.7096 77.4241 91.5563 66.3108 99.5963 59.9241C100.69 59.0541 102.296 59.8341 102.3 61.2241C102.333 68.5875 102.333 83.1341 102.333 83.1341Z" fill="#603F8B"/>
<path d="M100.587 48.9116C97.7 43.4716 92.02 39.9983 85.7667 39.9983H52.5C46.2467 39.9983 40.5667 43.4716 37.68 48.9116C37.0334 50.1283 37.34 51.645 38.4167 52.505L63.1667 72.3016C64.9 73.7016 67 74.3983 69.1 74.3983C69.1133 74.3983 69.1234 74.3983 69.1334 74.3983C69.1434 74.3983 69.1567 74.3983 69.1667 74.3983C71.2667 74.3983 73.3667 73.7016 75.1 72.3016L99.85 52.505C100.927 51.645 101.233 50.1283 100.587 48.9116Z" fill="#603F8B"/>
<circle cx="96" cy="36" r="16" fill="white"/>
<path fill-rule="evenodd" clip-rule="evenodd" d="M96 20C87.1636 20 80 27.1636 80 36C80 44.8364 87.1636 52 96 52C104.836 52 112 44.8364 112 36C112 27.1636 104.836 20 96 20ZM102.935 33.2945C103.063 33.1486 103.16 32.9785 103.221 32.7944C103.282 32.6103 103.306 32.4159 103.291 32.2225C103.275 32.0292 103.222 31.8408 103.132 31.6686C103.043 31.4963 102.921 31.3436 102.772 31.2194C102.623 31.0952 102.45 31.0021 102.265 30.9455C102.079 30.889 101.884 30.8701 101.691 30.8899C101.499 30.9098 101.312 30.9681 101.141 31.0613C100.971 31.1545 100.822 31.2808 100.701 31.4327L94.4465 38.9367L91.2102 35.6989C90.9359 35.434 90.5684 35.2873 90.1871 35.2907C89.8057 35.294 89.4409 35.4469 89.1712 35.7166C88.9015 35.9863 88.7485 36.3511 88.7452 36.7325C88.7419 37.1139 88.8885 37.4813 89.1535 37.7556L93.5171 42.1193C93.66 42.2621 93.8311 42.3736 94.0195 42.4466C94.2079 42.5197 94.4095 42.5527 94.6113 42.5435C94.8131 42.5343 95.0109 42.4832 95.1919 42.3934C95.3729 42.3036 95.5332 42.177 95.6625 42.0218L102.935 33.2945Z" fill="#05FF0F"/>
</svg>
